<svg width="10" height="10" viewBox="0 0 10 10" fill="none" xmlns="http://www.w3.org/2000/svg">
<g clip-path="url(#clip0)">
<path d="M8.42829 0.894383C8.59952 0.721547 8.83221 0.623521 9.07551 0.621729C9.3188 0.619937 9.55291 0.714524 9.72667 0.884819C9.90043 1.05511 9.99972 1.28727 10.0028 1.53055C10.0059 1.77383 9.91263 2.00845 9.74329 2.18313L4.84329 8.30876C4.75911 8.39939 4.65753 8.47213 4.54462 8.52263C4.4317 8.57314 4.30977 8.60037 4.1861 8.6027C4.06242 8.60504 3.93955 8.58242 3.82481 8.53622C3.71007 8.49001 3.60582 8.42115 3.51829 8.33376L0.269536 5.08626C0.0968963 4.91354 -5.85786e-05 4.67931 2.65528e-08 4.4351C5.86317e-05 4.19089 0.0971259 3.95671 0.269848 3.78407C0.44257 3.61143 0.676799 3.51448 0.921007 3.51454C1.16521 3.51459 1.3994 3.61166 1.57204 3.78438L4.14141 6.35438L8.40391 0.923133C8.41166 0.913251 8.42 0.903858 8.42891 0.895008L8.42829 0.894383Z" fill="white"/>
</g>
<defs>
<clipPath id="clip0">
<rect width="10" height="10" fill="white"/>
</clipPath>
</defs>
</svg>
